<?xml version="1.0" standalone="no"?><svg xmlns="http://www.w3.org/2000/svg" viewBox="0 0 1440 320"><path fill="#fff" fill-opacity="1" d="M0,224L18.5,234.7C36.9,245,74,267,111,261.3C147.7,256,185,224,222,229.3C258.5,235,295,277,332,277.3C369.2,277,406,235,443,213.3C480,192,517,192,554,186.7C590.8,181,628,171,665,176C701.5,181,738,203,775,218.7C812.3,235,849,245,886,245.3C923.1,245,960,235,997,208C1033.8,181,1071,139,1108,133.3C1144.6,128,1182,160,1218,197.3C1255.4,235,1292,277,1329,261.3C1366.2,245,1403,171,1422,133.3L1440,96L1440,320L1421.5,320C1403.1,320,1366,320,1329,320C1292.3,320,1255,320,1218,320C1181.5,320,1145,320,1108,320C1070.8,320,1034,320,997,320C960,320,923,320,886,320C849.2,320,812,320,775,320C738.5,320,702,320,665,320C627.7,320,591,320,554,320C516.9,320,480,320,443,320C406.2,320,369,320,332,320C295.4,320,258,320,222,320C184.6,320,148,320,111,320C73.8,320,37,320,18,320L0,320Z"></path></svg>